<?xml version="1.0" encoding="UTF-8"?>
<svg viewBox="0 0 1200 640" width="1200" height="640" role="img" aria-label="ValueClue S1 系统指挥图:一手披露经信号引擎与结构化解读进入S1终端,判官层出草稿经人审回流,全链每日自动运转" xmlns="http://www.w3.org/2000/svg">
<rect width="1200" height="640" fill="#0a0e14"/>
<circle cx="34" cy="30" r="7" fill="#2fd47f"/>
<text x="50" y="36" font-size="19" font-weight="700" font-family="ui-monospace,Menlo,monospace" fill="#d8e2ee">ValueClue S1</text>
<text x="196" y="36" font-size="12" fill="#7a8aa0">作战指挥图 · 开源架构版</text>
<text x="640" y="30" text-anchor="middle" font-size="17" font-weight="700" font-family="ui-monospace,Menlo,monospace" fill="#2fd47f">4</text>
<text x="640" y="48" text-anchor="middle" font-size="10" fill="#7a8aa0">分区</text>
<text x="736" y="30" text-anchor="middle" font-size="17" font-weight="700" font-family="ui-monospace,Menlo,monospace" fill="#2fd47f">12+</text>
<text x="736" y="48" text-anchor="middle" font-size="10" fill="#7a8aa0">角色</text>
<text x="832" y="30" text-anchor="middle" font-size="17" font-weight="700" font-family="ui-monospace,Menlo,monospace" fill="#2fd47f">2</text>
<text x="832" y="48" text-anchor="middle" font-size="10" fill="#7a8aa0">每日班次</text>
<text x="928" y="30" text-anchor="middle" font-size="17" font-weight="700" font-family="ui-monospace,Menlo,monospace" fill="#2fd47f">100%</text>
<text x="928" y="48" text-anchor="middle" font-size="10" fill="#7a8aa0">一手源</text>
<text x="1170" y="36" text-anchor="end" font-size="13" font-family="ui-monospace,Menlo,monospace" fill="#7a8aa0">07:00 / 19:30</text>
<rect x="430" y="70" width="420" height="120" rx="10" fill="#0f1520" stroke="#a78bfa" stroke-width="1.3" opacity="0.96"/>
<text x="446" y="96" font-size="13" font-weight="700" font-family="ui-monospace,Menlo,monospace" fill="#a78bfa">L0 · 决策区</text>
<text x="446" y="114" font-size="10.5" fill="#7a8aa0">人审拍板 · 一切判断落库前过人</text>
<circle cx="530" cy="140" r="30" fill="#0a0e14" stroke="#a78bfa" stroke-width="2"/>
<text x="530" y="138" text-anchor="middle" font-size="13" font-weight="700" fill="#d8e2ee">Owner</text>
<text x="530" y="154" text-anchor="middle" font-size="9.5" fill="#7a8aa0">拍板</text>
<circle cx="650" cy="140" r="30" fill="#0a0e14" stroke="#a78bfa" stroke-width="2"/>
<text x="650" y="138" text-anchor="middle" font-size="13" font-weight="700" fill="#d8e2ee">Brain</text>
<text x="650" y="154" text-anchor="middle" font-size="9.5" fill="#7a8aa0">分析·判断</text>
<circle cx="770" cy="140" r="30" fill="#0a0e14" stroke="#a78bfa" stroke-width="2"/>
<text x="770" y="138" text-anchor="middle" font-size="13" font-weight="700" fill="#d8e2ee">Executor</text>
<text x="770" y="154" text-anchor="middle" font-size="9.5" fill="#7a8aa0">机械执行</text>
<rect x="40" y="230" width="330" height="350" rx="10" fill="#0f1520" stroke="#4a9eff" stroke-width="1.3" opacity="0.96"/>
<text x="56" y="256" font-size="13" font-weight="700" font-family="ui-monospace,Menlo,monospace" fill="#4a9eff">L1 · 研判区</text>
<text x="56" y="274" font-size="10.5" fill="#7a8aa0">分层判官草拟 · 发现引擎浮现候选</text>
<circle cx="110" cy="320" r="27" fill="#0a0e14" stroke="#4a9eff" stroke-width="2"/>
<text x="110" y="318" text-anchor="middle" font-size="13" font-weight="700" fill="#d8e2ee">判官 A</text>
<text x="110" y="334" text-anchor="middle" font-size="9.5" fill="#7a8aa0">底座层</text>
<circle cx="205" cy="320" r="27" fill="#0a0e14" stroke="#4a9eff" stroke-width="2"/>
<text x="205" y="318" text-anchor="middle" font-size="13" font-weight="700" fill="#d8e2ee">判官 B</text>
<text x="205" y="334" text-anchor="middle" font-size="9.5" fill="#7a8aa0">中间层</text>
<circle cx="300" cy="320" r="27" fill="#0a0e14" stroke="#4a9eff" stroke-width="2"/>
<text x="300" y="318" text-anchor="middle" font-size="13" font-weight="700" fill="#d8e2ee">判官 C</text>
<text x="300" y="334" text-anchor="middle" font-size="9.5" fill="#7a8aa0">应用层</text>
<circle cx="110" cy="450" r="27" fill="#0a0e14" stroke="#4a9eff" stroke-width="2"/>
<text x="110" y="448" text-anchor="middle" font-size="13" font-weight="700" fill="#d8e2ee">发现</text>
<text x="110" y="464" text-anchor="middle" font-size="9.5" fill="#7a8aa0">全层扫描</text>
<circle cx="205" cy="450" r="27" fill="#0a0e14" stroke="#4a9eff" stroke-width="2"/>
<text x="205" y="448" text-anchor="middle" font-size="13" font-weight="700" fill="#d8e2ee">研判</text>
<text x="205" y="464" text-anchor="middle" font-size="9.5" fill="#7a8aa0">深度分析</text>
<circle cx="300" cy="450" r="27" fill="#0a0e14" stroke="#4a9eff" stroke-width="2"/>
<text x="300" y="448" text-anchor="middle" font-size="13" font-weight="700" fill="#d8e2ee">回测</text>
<text x="300" y="464" text-anchor="middle" font-size="9.5" fill="#7a8aa0">历史检验</text>
<rect x="430" y="230" width="420" height="350" rx="10" fill="#0f1520" stroke="#2fd47f" stroke-width="1.3" opacity="0.96"/>
<text x="446" y="256" font-size="13" font-weight="700" font-family="ui-monospace,Menlo,monospace" fill="#2fd47f">L2 · 生产区</text>
<text x="446" y="274" font-size="10.5" fill="#7a8aa0">调度与流水线 · 网站与任务账本</text>
<circle cx="540" cy="330" r="30" fill="#0a0e14" stroke="#2fd47f" stroke-width="2"/>
<text x="540" y="328" text-anchor="middle" font-size="13" font-weight="700" fill="#d8e2ee">调度</text>
<text x="540" y="344" text-anchor="middle" font-size="9.5" fill="#7a8aa0">编排</text>
<circle cx="740" cy="330" r="30" fill="#0a0e14" stroke="#2fd47f" stroke-width="2"/>
<text x="740" y="328" text-anchor="middle" font-size="13" font-weight="700" fill="#d8e2ee">账本</text>
<text x="740" y="344" text-anchor="middle" font-size="9.5" fill="#7a8aa0">待批/回流</text>
<rect x="490" y="430" width="300" height="64" rx="8" fill="#0a0e14" stroke="#2fd47f" stroke-width="1.6"/>
<text x="640" y="456" text-anchor="middle" font-size="13" font-weight="700" fill="#d8e2ee">流水线群</text>
<text x="640" y="476" text-anchor="middle" font-size="10.5" fill="#7a8aa0">披露采集 · 信号引擎 · 结构化解读 · S1 聚合</text>
<rect x="910" y="230" width="250" height="350" rx="10" fill="#0f1520" stroke="#39d0d8" stroke-width="1.3" opacity="0.96"/>
<text x="926" y="256" font-size="13" font-weight="700" font-family="ui-monospace,Menlo,monospace" fill="#39d0d8">L3 · 知识库区</text>
<text x="926" y="274" font-size="10.5" fill="#7a8aa0">一手原文归档 · RAG</text>
<rect x="940" y="300" width="190" height="60" rx="8" fill="#0a0e14" stroke="#39d0d8" stroke-width="1.6"/>
<text x="1035" y="326" text-anchor="middle" font-size="12.5" font-weight="700" fill="#d8e2ee">一手披露主抓</text>
<text x="1035" y="344" text-anchor="middle" font-size="10" fill="#7a8aa0">EDGAR · 巨潮 · HKEX</text>
<rect x="940" y="400" width="190" height="60" rx="8" fill="#0a0e14" stroke="#39d0d8" stroke-width="1.6"/>
<text x="1035" y="426" text-anchor="middle" font-size="12.5" font-weight="700" fill="#d8e2ee">KB 知识库</text>
<text x="1035" y="444" text-anchor="middle" font-size="10" fill="#7a8aa0">原文可回链 · 引用必带源</text>
<path d="M1035 300 L1035 260 L860 260 L790 430" stroke="#39d0d8" stroke-width="1.6" fill="none" opacity="0.8" stroke-dasharray="6 5"/>
<circle cx="790" cy="430" r="3.4" fill="#39d0d8"/>
<path d="M370 330 L505 330" stroke="#4a9eff" stroke-width="1.6" fill="none" opacity="0.8" stroke-dasharray="6 5"/>
<circle cx="505" cy="330" r="3.4" fill="#4a9eff"/>
<path d="M740 296 L700 200 L560 172" stroke="#2fd47f" stroke-width="1.6" fill="none" opacity="0.8" stroke-dasharray="6 5"/>
<circle cx="560" cy="172" r="3.4" fill="#2fd47f"/>
<path d="M560 108 L740 108 L762 296" stroke="#a78bfa" stroke-width="1.6" fill="none" opacity="0.8" stroke-dasharray="6 5"/>
<circle cx="762" cy="296" r="3.4" fill="#a78bfa"/>
<path d="M640 430 L640 396 L600 360" stroke="#2fd47f" stroke-width="1.6" fill="none" opacity="0.8" stroke-dasharray="6 5"/>
<circle cx="600" cy="360" r="3.4" fill="#2fd47f"/>
<text x="40" y="615" font-size="11.5" fill="#2fd47f">● 一手披露 → 信号 → 结构化解读 → S1 终端(每日两班)</text>
<text x="470" y="615" font-size="11.5" fill="#a78bfa">● 判官草拟 → 账本送审 → 人审拍板回流(判断永不自动落库)</text>
<text x="950" y="615" font-size="11.5" fill="#7a8aa0">MIT · 代码开源 · 数据私有</text>
</svg>